<mxfile host="app.diagrams.net" modified="2023-07-29T03:08:07.433Z" agent="Mozilla/5.0 (Windows NT 10.0; Win64; x64) AppleWebKit/537.36 (KHTML, like Gecko) Chrome/115.0.0.0 Safari/537.36" etag="QXlMZymq3DwNfzorAW2E" version="21.6.5" type="github">
  <diagram name="第 1 页" id="GQY_6OIQZkM4Sm7RA_E7">
    <mxGraphModel dx="880" dy="446" grid="1" gridSize="10" guides="1" tooltips="1" connect="1" arrows="1" fold="1" page="1" pageScale="1" pageWidth="827" pageHeight="1169" math="0" shadow="0">
      <root>
        <mxCell id="0" />
        <mxCell id="1" parent="0" />
        <mxCell id="iIiKdURpRuLuX3CJKNOW-1" value="" style="rounded=0;whiteSpace=wrap;html=1;" vertex="1" parent="1">
          <mxGeometry x="170" y="130" width="180" height="260" as="geometry" />
        </mxCell>
        <mxCell id="iIiKdURpRuLuX3CJKNOW-2" value="" style="rounded=0;whiteSpace=wrap;html=1;" vertex="1" parent="1">
          <mxGeometry x="450" y="130" width="180" height="260" as="geometry" />
        </mxCell>
        <mxCell id="iIiKdURpRuLuX3CJKNOW-3" value="32位地址空间" style="text;html=1;strokeColor=none;fillColor=none;align=center;verticalAlign=middle;whiteSpace=wrap;rounded=0;" vertex="1" parent="1">
          <mxGeometry x="220" y="400" width="90" height="30" as="geometry" />
        </mxCell>
        <mxCell id="iIiKdURpRuLuX3CJKNOW-4" value="64位地址空间" style="text;html=1;strokeColor=none;fillColor=none;align=center;verticalAlign=middle;whiteSpace=wrap;rounded=0;" vertex="1" parent="1">
          <mxGeometry x="510" y="400" width="90" height="30" as="geometry" />
        </mxCell>
      </root>
    </mxGraphModel>
  </diagram>
</mxfile>
